<svg width="1440" height="1024" viewBox="0 0 1440 1024" fill="none" xmlns="http://www.w3.org/2000/svg">
<rect width="1440" height="1024" fill="#F5F5F5"/>
<rect width="1440" height="1024" fill="#8F68FB"/>
<path d="M525.584 544.123L410.888 314.731L383.16 290.153L364.254 282.591H348.499H326.442L295.247 314.731L410.888 544.123H525.584Z" fill="#034637"/>
<path d="M525.584 544.123L410.888 314.731L383.16 290.153L364.254 282.591H348.499H326.442L295.247 314.731L410.888 544.123H525.584Z" fill="url(#paint0_linear_0_1)"/>
<path d="M196.306 371.764L311.002 601.155L338.731 625.733L357.637 633.295H373.392H395.449L426.643 601.155L311.002 371.764H196.306Z" fill="#034637"/>
<path d="M196.306 371.764L311.002 601.155L338.731 625.733L357.637 633.295H373.392H395.449L426.643 601.155L311.002 371.764H196.306Z" fill="url(#paint1_linear_0_1)"/>
<g filter="url(#filter0_d_0_1)">
<path d="M461.304 598.95L576 374.915H461.304L346.608 598.95C332.211 620.06 324.139 616.825 309.742 598.95C383.601 700.537 441.558 641.278 461.304 598.95Z" fill="#034637"/>
</g>
<g filter="url(#filter1_d_0_1)">
<path d="M258.696 320.092L144 544.127H258.696L373.392 320.092C387.789 298.981 395.861 302.216 410.258 320.092C336.399 218.504 278.442 277.764 258.696 320.092Z" fill="#034637"/>
</g>
<path d="M580.409 429.118C579.872 429.118 579.412 428.927 579.029 428.543C578.645 428.16 578.454 427.687 578.454 427.125C578.454 426.563 578.645 426.102 579.029 425.745C579.412 425.361 579.872 425.17 580.409 425.17C580.946 425.17 581.406 425.361 581.789 425.745C582.172 426.102 582.364 426.563 582.364 427.125C582.364 427.687 582.172 428.16 581.789 428.543C581.406 428.927 580.946 429.118 580.409 429.118ZM581.751 433.067V454H579.067V433.067H581.751ZM597.643 432.684C600.147 432.684 602.192 433.463 603.777 435.023C605.361 436.556 606.154 438.792 606.154 441.732V454H603.508V442.038C603.508 439.764 602.933 438.026 601.783 436.824C600.659 435.623 599.112 435.023 597.144 435.023C595.125 435.023 593.515 435.661 592.314 436.939C591.112 438.217 590.512 440.096 590.512 442.575V454H587.828V433.067H590.512V436.633C591.176 435.355 592.135 434.384 593.387 433.719C594.639 433.029 596.058 432.684 597.643 432.684ZM615.578 435.329V448.326C615.578 449.604 615.821 450.486 616.306 450.971C616.792 451.457 617.648 451.7 618.875 451.7H621.328V454H618.453C616.562 454 615.156 453.565 614.236 452.696C613.316 451.802 612.856 450.345 612.856 448.326V435.329H609.942V433.067H612.856V427.815H615.578V433.067H621.328V435.329H615.578ZM644.694 442.46C644.694 443.38 644.668 444.083 644.617 444.569H627.25C627.326 446.153 627.71 447.508 628.4 448.633C629.09 449.757 629.997 450.613 631.122 451.201C632.246 451.764 633.473 452.045 634.802 452.045C636.54 452.045 637.997 451.623 639.173 450.78C640.374 449.936 641.166 448.799 641.55 447.367H644.387C643.876 449.412 642.777 451.086 641.09 452.39C639.428 453.668 637.333 454.307 634.802 454.307C632.834 454.307 631.071 453.872 629.512 453.003C627.953 452.109 626.726 450.856 625.831 449.246C624.962 447.61 624.528 445.706 624.528 443.534C624.528 441.361 624.962 439.457 625.831 437.821C626.7 436.185 627.914 434.933 629.473 434.064C631.032 433.195 632.809 432.761 634.802 432.761C636.796 432.761 638.534 433.195 640.016 434.064C641.524 434.933 642.674 436.109 643.467 437.591C644.285 439.048 644.694 440.671 644.694 442.46ZM641.972 442.383C641.997 440.824 641.678 439.495 641.013 438.396C640.374 437.297 639.492 436.467 638.368 435.904C637.243 435.342 636.016 435.061 634.687 435.061C632.694 435.061 630.994 435.7 629.588 436.978C628.183 438.256 627.403 440.058 627.25 442.383H641.972ZM652.287 436.786C652.875 435.483 653.77 434.473 654.971 433.757C656.198 433.042 657.693 432.684 659.457 432.684V435.483H658.728C656.786 435.483 655.227 436.007 654.051 437.054C652.875 438.102 652.287 439.853 652.287 442.307V454H649.604V433.067H652.287V436.786ZM673.308 432.684C675.813 432.684 677.858 433.463 679.443 435.023C681.027 436.556 681.82 438.792 681.82 441.732V454H679.174V442.038C679.174 439.764 678.599 438.026 677.449 436.824C676.324 435.623 674.778 435.023 672.81 435.023C670.791 435.023 669.181 435.661 667.979 436.939C666.778 438.217 666.177 440.096 666.177 442.575V454H663.494V433.067H666.177V436.633C666.842 435.355 667.8 434.384 669.053 433.719C670.305 433.029 671.724 432.684 673.308 432.684ZM686.528 443.495C686.528 441.348 686.95 439.47 687.793 437.86C688.662 436.224 689.851 434.971 691.359 434.102C692.892 433.208 694.617 432.761 696.534 432.761C698.528 432.761 700.24 433.221 701.672 434.141C703.128 435.061 704.176 436.237 704.815 437.668V433.067H707.499V454H704.815V449.361C704.151 450.792 703.09 451.981 701.633 452.927C700.202 453.847 698.49 454.307 696.496 454.307C694.605 454.307 692.892 453.859 691.359 452.965C689.851 452.07 688.662 450.805 687.793 449.169C686.95 447.534 686.528 445.642 686.528 443.495ZM704.815 443.534C704.815 441.847 704.47 440.364 703.78 439.086C703.09 437.808 702.144 436.824 700.943 436.134C699.767 435.444 698.464 435.099 697.033 435.099C695.55 435.099 694.221 435.431 693.045 436.096C691.87 436.761 690.937 437.732 690.247 439.01C689.582 440.262 689.25 441.757 689.25 443.495C689.25 445.208 689.582 446.716 690.247 448.019C690.937 449.297 691.87 450.281 693.045 450.971C694.221 451.636 695.55 451.968 697.033 451.968C698.464 451.968 699.767 451.623 700.943 450.933C702.144 450.243 703.09 449.259 703.78 447.981C704.47 446.703 704.815 445.221 704.815 443.534ZM717.114 435.329V448.326C717.114 449.604 717.357 450.486 717.843 450.971C718.328 451.457 719.185 451.7 720.412 451.7H722.865V454H719.99C718.098 454 716.693 453.565 715.773 452.696C714.852 451.802 714.392 450.345 714.392 448.326V435.329H711.479V433.067H714.392V427.815H717.114V433.067H722.865V435.329H717.114ZM728.633 429.118C728.096 429.118 727.636 428.927 727.253 428.543C726.869 428.16 726.678 427.687 726.678 427.125C726.678 426.563 726.869 426.102 727.253 425.745C727.636 425.361 728.096 425.17 728.633 425.17C729.17 425.17 729.63 425.361 730.013 425.745C730.397 426.102 730.588 426.563 730.588 427.125C730.588 427.687 730.397 428.16 730.013 428.543C729.63 428.927 729.17 429.118 728.633 429.118ZM729.975 433.067V454H727.291V433.067H729.975ZM745.215 454.307C743.247 454.307 741.471 453.872 739.886 453.003C738.327 452.109 737.087 450.856 736.167 449.246C735.273 447.61 734.825 445.706 734.825 443.534C734.825 441.361 735.285 439.47 736.205 437.86C737.126 436.224 738.378 434.971 739.963 434.102C741.547 433.208 743.324 432.761 745.292 432.761C747.26 432.761 749.036 433.208 750.621 434.102C752.231 434.971 753.483 436.224 754.378 437.86C755.298 439.47 755.758 441.361 755.758 443.534C755.758 445.681 755.298 447.572 754.378 449.208C753.458 450.843 752.193 452.109 750.582 453.003C748.972 453.872 747.183 454.307 745.215 454.307ZM745.215 451.968C746.595 451.968 747.873 451.661 749.049 451.048C750.224 450.409 751.17 449.463 751.886 448.211C752.627 446.933 752.998 445.374 752.998 443.534C752.998 441.693 752.64 440.147 751.924 438.895C751.209 437.617 750.263 436.671 749.087 436.058C747.911 435.419 746.633 435.099 745.253 435.099C743.873 435.099 742.595 435.419 741.419 436.058C740.244 436.671 739.298 437.617 738.582 438.895C737.892 440.147 737.547 441.693 737.547 443.534C737.547 445.374 737.892 446.933 738.582 448.211C739.298 449.463 740.231 450.409 741.381 451.048C742.557 451.661 743.835 451.968 745.215 451.968ZM770.465 432.684C772.969 432.684 775.014 433.463 776.599 435.023C778.183 436.556 778.976 438.792 778.976 441.732V454H776.33V442.038C776.33 439.764 775.755 438.026 774.605 436.824C773.481 435.623 771.934 435.023 769.966 435.023C767.947 435.023 766.337 435.661 765.136 436.939C763.934 438.217 763.334 440.096 763.334 442.575V454H760.65V433.067H763.334V436.633C763.998 435.355 764.957 434.384 766.209 433.719C767.461 433.029 768.88 432.684 770.465 432.684ZM783.684 443.495C783.684 441.348 784.106 439.47 784.949 437.86C785.818 436.224 787.007 434.971 788.515 434.102C790.048 433.208 791.774 432.761 793.69 432.761C795.684 432.761 797.397 433.221 798.828 434.141C800.285 435.061 801.333 436.237 801.972 437.668V433.067H804.655V454H801.972V449.361C801.307 450.792 800.246 451.981 798.789 452.927C797.358 453.847 795.646 454.307 793.652 454.307C791.761 454.307 790.048 453.859 788.515 452.965C787.007 452.07 785.818 450.805 784.949 449.169C784.106 447.534 783.684 445.642 783.684 443.495ZM801.972 443.534C801.972 441.847 801.627 440.364 800.936 439.086C800.246 437.808 799.301 436.824 798.099 436.134C796.924 435.444 795.62 435.099 794.189 435.099C792.706 435.099 791.377 435.431 790.202 436.096C789.026 436.761 788.093 437.732 787.403 439.01C786.738 440.262 786.406 441.757 786.406 443.495C786.406 445.208 786.738 446.716 787.403 448.019C788.093 449.297 789.026 450.281 790.202 450.971C791.377 451.636 792.706 451.968 794.189 451.968C795.62 451.968 796.924 451.623 798.099 450.933C799.301 450.243 800.246 449.259 800.936 447.981C801.627 446.703 801.972 445.221 801.972 443.534ZM813.466 425.63V454H810.782V425.63H813.466ZM854.983 432.684C857.437 432.684 859.431 433.463 860.964 435.023C862.523 436.556 863.303 438.792 863.303 441.732V454H860.657V442.038C860.657 439.764 860.108 438.026 859.009 436.824C857.91 435.623 856.415 435.023 854.523 435.023C852.555 435.023 850.983 435.674 849.808 436.978C848.632 438.281 848.044 440.173 848.044 442.652V454H845.399V442.038C845.399 439.764 844.849 438.026 843.75 436.824C842.651 435.623 841.143 435.023 839.226 435.023C837.258 435.023 835.686 435.674 834.511 436.978C833.335 438.281 832.747 440.173 832.747 442.652V454H830.063V433.067H832.747V436.671C833.412 435.368 834.357 434.384 835.584 433.719C836.811 433.029 838.178 432.684 839.686 432.684C841.501 432.684 843.086 433.118 844.44 433.987C845.82 434.856 846.817 436.134 847.431 437.821C847.993 436.16 848.951 434.895 850.306 434.026C851.686 433.131 853.245 432.684 854.983 432.684ZM887.397 433.067V454H884.713V450.32C884.1 451.623 883.154 452.62 881.876 453.31C880.598 454 879.167 454.345 877.582 454.345C875.077 454.345 873.033 453.578 871.448 452.045C869.863 450.486 869.071 448.236 869.071 445.297V433.067H871.716V444.99C871.716 447.265 872.279 449.003 873.403 450.205C874.554 451.406 876.113 452.006 878.081 452.006C880.1 452.006 881.71 451.367 882.911 450.089C884.113 448.812 884.713 446.933 884.713 444.454V433.067H887.397ZM896.208 425.63V454H893.524V425.63H896.208ZM905.774 435.329V448.326C905.774 449.604 906.016 450.486 906.502 450.971C906.988 451.457 907.844 451.7 909.071 451.7H911.524V454H908.649C906.758 454 905.352 453.565 904.432 452.696C903.512 451.802 903.052 450.345 903.052 448.326V435.329H900.138V433.067H903.052V427.815H905.774V433.067H911.524V435.329H905.774ZM917.292 429.118C916.755 429.118 916.295 428.927 915.912 428.543C915.529 428.16 915.337 427.687 915.337 427.125C915.337 426.563 915.529 426.102 915.912 425.745C916.295 425.361 916.755 425.17 917.292 425.17C917.829 425.17 918.289 425.361 918.672 425.745C919.056 426.102 919.247 426.563 919.247 427.125C919.247 427.687 919.056 428.16 918.672 428.543C918.289 428.927 917.829 429.118 917.292 429.118ZM918.634 433.067V454H915.95V433.067H918.634ZM937.708 438.665V440.927H922.794V438.665H937.708ZM947.237 437.706C947.927 436.249 948.988 435.061 950.419 434.141C951.876 433.221 953.588 432.761 955.556 432.761C957.473 432.761 959.186 433.208 960.694 434.102C962.202 434.971 963.377 436.224 964.221 437.86C965.09 439.47 965.524 441.348 965.524 443.495C965.524 445.642 965.09 447.534 964.221 449.169C963.377 450.805 962.189 452.07 960.655 452.965C959.147 453.859 957.448 454.307 955.556 454.307C953.563 454.307 951.838 453.859 950.381 452.965C948.949 452.045 947.902 450.856 947.237 449.399V454H944.592V425.63H947.237V437.706ZM962.802 443.495C962.802 441.757 962.457 440.262 961.767 439.01C961.103 437.732 960.183 436.761 959.007 436.096C957.831 435.431 956.502 435.099 955.02 435.099C953.588 435.099 952.272 435.444 951.071 436.134C949.895 436.824 948.962 437.808 948.272 439.086C947.582 440.364 947.237 441.847 947.237 443.534C947.237 445.221 947.582 446.703 948.272 447.981C948.962 449.259 949.895 450.243 951.071 450.933C952.272 451.623 953.588 451.968 955.02 451.968C956.502 451.968 957.831 451.636 959.007 450.971C960.183 450.281 961.103 449.297 961.767 448.019C962.457 446.716 962.802 445.208 962.802 443.495ZM988.597 433.067V454H985.913V450.32C985.3 451.623 984.354 452.62 983.076 453.31C981.798 454 980.367 454.345 978.782 454.345C976.277 454.345 974.233 453.578 972.648 452.045C971.063 450.486 970.271 448.236 970.271 445.297V433.067H972.916V444.99C972.916 447.265 973.479 449.003 974.603 450.205C975.753 451.406 977.312 452.006 979.28 452.006C981.3 452.006 982.91 451.367 984.111 450.089C985.312 448.812 985.913 446.933 985.913 444.454V433.067H988.597ZM1001.93 454.307C999.529 454.307 997.561 453.757 996.027 452.658C994.519 451.534 993.676 450.013 993.497 448.096H996.257C996.385 449.272 996.934 450.23 997.906 450.971C998.902 451.687 1000.23 452.045 1001.89 452.045C1003.35 452.045 1004.49 451.7 1005.3 451.01C1006.15 450.32 1006.57 449.463 1006.57 448.441C1006.57 447.725 1006.34 447.137 1005.88 446.677C1005.42 446.217 1004.83 445.859 1004.12 445.604C1003.43 445.323 1002.48 445.029 1001.28 444.722C999.72 444.313 998.455 443.904 997.484 443.495C996.513 443.086 995.682 442.486 994.992 441.693C994.327 440.876 993.995 439.789 993.995 438.435C993.995 437.412 994.302 436.467 994.915 435.598C995.529 434.729 996.398 434.039 997.522 433.527C998.647 433.016 999.925 432.761 1001.36 432.761C1003.61 432.761 1005.42 433.336 1006.8 434.486C1008.18 435.61 1008.92 437.169 1009.02 439.163H1006.34C1006.26 437.936 1005.78 436.952 1004.88 436.211C1004.01 435.444 1002.81 435.061 1001.28 435.061C999.925 435.061 998.826 435.38 997.982 436.019C997.139 436.658 996.717 437.451 996.717 438.396C996.717 439.214 996.96 439.891 997.446 440.428C997.957 440.939 998.583 441.348 999.324 441.655C1000.07 441.936 1001.06 442.256 1002.31 442.614C1003.82 443.022 1005.02 443.419 1005.92 443.802C1006.81 444.185 1007.58 444.748 1008.22 445.489C1008.86 446.23 1009.19 447.214 1009.22 448.441C1009.22 449.566 1008.91 450.575 1008.3 451.47C1007.68 452.339 1006.83 453.029 1005.73 453.54C1004.63 454.051 1003.36 454.307 1001.93 454.307ZM1015.61 429.118C1015.07 429.118 1014.61 428.927 1014.23 428.543C1013.85 428.16 1013.65 427.687 1013.65 427.125C1013.65 426.563 1013.85 426.102 1014.23 425.745C1014.61 425.361 1015.07 425.17 1015.61 425.17C1016.15 425.17 1016.61 425.361 1016.99 425.745C1017.37 426.102 1017.56 426.563 1017.56 427.125C1017.56 427.687 1017.37 428.16 1016.99 428.543C1016.61 428.927 1016.15 429.118 1015.61 429.118ZM1016.95 433.067V454H1014.27V433.067H1016.95ZM1032.84 432.684C1035.35 432.684 1037.39 433.463 1038.98 435.023C1040.56 436.556 1041.35 438.792 1041.35 441.732V454H1038.71V442.038C1038.71 439.764 1038.13 438.026 1036.98 436.824C1035.86 435.623 1034.31 435.023 1032.34 435.023C1030.33 435.023 1028.71 435.661 1027.51 436.939C1026.31 438.217 1025.71 440.096 1025.71 442.575V454H1023.03V433.067H1025.71V436.633C1026.38 435.355 1027.33 434.384 1028.59 433.719C1029.84 433.029 1031.26 432.684 1032.84 432.684ZM1066.23 442.46C1066.23 443.38 1066.2 444.083 1066.15 444.569H1048.78C1048.86 446.153 1049.24 447.508 1049.93 448.633C1050.62 449.757 1051.53 450.613 1052.66 451.201C1053.78 451.764 1055.01 452.045 1056.34 452.045C1058.07 452.045 1059.53 451.623 1060.71 450.78C1061.91 449.936 1062.7 448.799 1063.08 447.367H1065.92C1065.41 449.412 1064.31 451.086 1062.62 452.39C1060.96 453.668 1058.87 454.307 1056.34 454.307C1054.37 454.307 1052.61 453.872 1051.05 453.003C1049.49 452.109 1048.26 450.856 1047.37 449.246C1046.5 447.61 1046.06 445.706 1046.06 443.534C1046.06 441.361 1046.5 439.457 1047.37 437.821C1048.23 436.185 1049.45 434.933 1051.01 434.064C1052.57 433.195 1054.34 432.761 1056.34 432.761C1058.33 432.761 1060.07 433.195 1061.55 434.064C1063.06 434.933 1064.21 436.109 1065 437.591C1065.82 439.048 1066.23 440.671 1066.23 442.46ZM1063.51 442.383C1063.53 440.824 1063.21 439.495 1062.55 438.396C1061.91 437.297 1061.03 436.467 1059.9 435.904C1058.78 435.342 1057.55 435.061 1056.22 435.061C1054.23 435.061 1052.53 435.7 1051.12 436.978C1049.72 438.256 1048.94 440.058 1048.78 442.383H1063.51ZM1078.35 454.307C1075.94 454.307 1073.98 453.757 1072.44 452.658C1070.93 451.534 1070.09 450.013 1069.91 448.096H1072.67C1072.8 449.272 1073.35 450.23 1074.32 450.971C1075.32 451.687 1076.65 452.045 1078.31 452.045C1079.76 452.045 1080.9 451.7 1081.72 451.01C1082.56 450.32 1082.98 449.463 1082.98 448.441C1082.98 447.725 1082.75 447.137 1082.29 446.677C1081.83 446.217 1081.25 445.859 1080.53 445.604C1079.84 445.323 1078.9 445.029 1077.69 444.722C1076.13 444.313 1074.87 443.904 1073.9 443.495C1072.93 443.086 1072.1 442.486 1071.41 441.693C1070.74 440.876 1070.41 439.789 1070.41 438.435C1070.41 437.412 1070.72 436.467 1071.33 435.598C1071.94 434.729 1072.81 434.039 1073.94 433.527C1075.06 433.016 1076.34 432.761 1077.77 432.761C1080.02 432.761 1081.83 433.336 1083.21 434.486C1084.59 435.61 1085.34 437.169 1085.44 439.163H1082.75C1082.68 437.936 1082.19 436.952 1081.3 436.211C1080.43 435.444 1079.23 435.061 1077.69 435.061C1076.34 435.061 1075.24 435.38 1074.4 436.019C1073.55 436.658 1073.13 437.451 1073.13 438.396C1073.13 439.214 1073.37 439.891 1073.86 440.428C1074.37 440.939 1075 441.348 1075.74 441.655C1076.48 441.936 1077.48 442.256 1078.73 442.614C1080.24 443.022 1081.44 443.419 1082.33 443.802C1083.23 444.185 1083.99 444.748 1084.63 445.489C1085.27 446.23 1085.6 447.214 1085.63 448.441C1085.63 449.566 1085.32 450.575 1084.71 451.47C1084.1 452.339 1083.24 453.029 1082.14 453.54C1081.04 454.051 1079.78 454.307 1078.35 454.307ZM1097.89 454.307C1095.49 454.307 1093.52 453.757 1091.99 452.658C1090.48 451.534 1089.63 450.013 1089.45 448.096H1092.22C1092.34 449.272 1092.89 450.23 1093.86 450.971C1094.86 451.687 1096.19 452.045 1097.85 452.045C1099.31 452.045 1100.45 451.7 1101.26 451.01C1102.11 450.32 1102.53 449.463 1102.53 448.441C1102.53 447.725 1102.3 447.137 1101.84 446.677C1101.38 446.217 1100.79 445.859 1100.07 445.604C1099.38 445.323 1098.44 445.029 1097.24 444.722C1095.68 444.313 1094.41 443.904 1093.44 443.495C1092.47 443.086 1091.64 442.486 1090.95 441.693C1090.29 440.876 1089.95 439.789 1089.95 438.435C1089.95 437.412 1090.26 436.467 1090.87 435.598C1091.49 434.729 1092.36 434.039 1093.48 433.527C1094.61 433.016 1095.88 432.761 1097.31 432.761C1099.56 432.761 1101.38 433.336 1102.76 434.486C1104.14 435.61 1104.88 437.169 1104.98 439.163H1102.3C1102.22 437.936 1101.74 436.952 1100.84 436.211C1099.97 435.444 1098.77 435.061 1097.24 435.061C1095.88 435.061 1094.78 435.38 1093.94 436.019C1093.1 436.658 1092.68 437.451 1092.68 438.396C1092.68 439.214 1092.92 439.891 1093.4 440.428C1093.91 440.939 1094.54 441.348 1095.28 441.655C1096.02 441.936 1097.02 442.256 1098.27 442.614C1099.78 443.022 1100.98 443.419 1101.88 443.802C1102.77 444.185 1103.54 444.748 1104.18 445.489C1104.82 446.23 1105.15 447.214 1105.17 448.441C1105.17 449.566 1104.87 450.575 1104.25 451.47C1103.64 452.339 1102.78 453.029 1101.68 453.54C1100.59 454.051 1099.32 454.307 1097.89 454.307ZM577.84 501.534C577.84 499.361 578.275 497.47 579.144 495.86C580.013 494.224 581.214 492.971 582.748 492.102C584.281 491.208 586.032 490.761 588 490.761C590.581 490.761 592.703 491.4 594.364 492.677C596.051 493.955 597.137 495.693 597.623 497.891H594.747C594.39 496.384 593.61 495.208 592.409 494.364C591.233 493.495 589.763 493.061 588 493.061C586.594 493.061 585.329 493.38 584.204 494.019C583.08 494.658 582.185 495.617 581.521 496.895C580.882 498.147 580.562 499.693 580.562 501.534C580.562 503.374 580.882 504.933 581.521 506.211C582.185 507.489 583.08 508.447 584.204 509.086C585.329 509.725 586.594 510.045 588 510.045C589.763 510.045 591.233 509.623 592.409 508.78C593.61 507.911 594.39 506.709 594.747 505.176H597.623C597.137 507.323 596.051 509.048 594.364 510.351C592.677 511.655 590.556 512.307 588 512.307C586.032 512.307 584.281 511.872 582.748 511.003C581.214 510.109 580.013 508.856 579.144 507.246C578.275 505.61 577.84 503.706 577.84 501.534ZM611.742 512.307C609.774 512.307 607.998 511.872 606.413 511.003C604.854 510.109 603.614 508.856 602.694 507.246C601.8 505.61 601.352 503.706 601.352 501.534C601.352 499.361 601.812 497.47 602.733 495.86C603.653 494.224 604.905 492.971 606.49 492.102C608.074 491.208 609.851 490.761 611.819 490.761C613.787 490.761 615.563 491.208 617.148 492.102C618.758 492.971 620.01 494.224 620.905 495.86C621.825 497.47 622.285 499.361 622.285 501.534C622.285 503.681 621.825 505.572 620.905 507.208C619.985 508.843 618.72 510.109 617.109 511.003C615.499 511.872 613.71 512.307 611.742 512.307ZM611.742 509.968C613.122 509.968 614.4 509.661 615.576 509.048C616.752 508.409 617.697 507.463 618.413 506.211C619.154 504.933 619.525 503.374 619.525 501.534C619.525 499.693 619.167 498.147 618.451 496.895C617.736 495.617 616.79 494.671 615.614 494.058C614.439 493.419 613.161 493.099 611.78 493.099C610.4 493.099 609.122 493.419 607.947 494.058C606.771 494.671 605.825 495.617 605.11 496.895C604.419 498.147 604.074 499.693 604.074 501.534C604.074 503.374 604.419 504.933 605.11 506.211C605.825 507.463 606.758 508.409 607.908 509.048C609.084 509.661 610.362 509.968 611.742 509.968ZM636.992 490.684C639.497 490.684 641.541 491.463 643.126 493.023C644.711 494.556 645.503 496.792 645.503 499.732V512H642.858V500.038C642.858 497.764 642.282 496.026 641.132 494.824C640.008 493.623 638.461 493.023 636.493 493.023C634.474 493.023 632.864 493.661 631.663 494.939C630.462 496.217 629.861 498.096 629.861 500.575V512H627.177V491.067H629.861V494.633C630.525 493.355 631.484 492.384 632.736 491.719C633.989 491.029 635.407 490.684 636.992 490.684ZM658.646 512.307C656.243 512.307 654.275 511.757 652.742 510.658C651.234 509.534 650.39 508.013 650.211 506.096H652.972C653.1 507.272 653.649 508.23 654.62 508.971C655.617 509.687 656.946 510.045 658.607 510.045C660.064 510.045 661.202 509.7 662.02 509.01C662.863 508.32 663.285 507.463 663.285 506.441C663.285 505.725 663.055 505.137 662.595 504.677C662.135 504.217 661.547 503.859 660.831 503.604C660.141 503.323 659.195 503.029 657.994 502.722C656.435 502.313 655.17 501.904 654.199 501.495C653.227 501.086 652.397 500.486 651.707 499.693C651.042 498.876 650.71 497.789 650.71 496.435C650.71 495.412 651.016 494.467 651.63 493.598C652.243 492.729 653.112 492.039 654.237 491.527C655.361 491.016 656.639 490.761 658.071 490.761C660.32 490.761 662.135 491.336 663.515 492.486C664.895 493.61 665.636 495.169 665.738 497.163H663.055C662.978 495.936 662.492 494.952 661.598 494.211C660.729 493.444 659.528 493.061 657.994 493.061C656.639 493.061 655.54 493.38 654.697 494.019C653.853 494.658 653.432 495.451 653.432 496.396C653.432 497.214 653.675 497.891 654.16 498.428C654.671 498.939 655.298 499.348 656.039 499.655C656.78 499.936 657.777 500.256 659.029 500.614C660.537 501.022 661.738 501.419 662.633 501.802C663.528 502.185 664.294 502.748 664.933 503.489C665.572 504.23 665.905 505.214 665.93 506.441C665.93 507.566 665.623 508.575 665.01 509.47C664.397 510.339 663.54 511.029 662.441 511.54C661.342 512.051 660.077 512.307 658.646 512.307ZM689.116 491.067V512H686.432V508.32C685.819 509.623 684.873 510.62 683.595 511.31C682.317 512 680.886 512.345 679.301 512.345C676.796 512.345 674.752 511.578 673.167 510.045C671.582 508.486 670.79 506.236 670.79 503.297V491.067H673.435V502.99C673.435 505.265 673.998 507.003 675.122 508.205C676.272 509.406 677.832 510.006 679.8 510.006C681.819 510.006 683.429 509.367 684.63 508.089C685.831 506.812 686.432 504.933 686.432 502.454V491.067H689.116ZM697.926 483.63V512H695.243V483.63H697.926ZM707.492 493.329V506.326C707.492 507.604 707.735 508.486 708.221 508.971C708.706 509.457 709.563 509.7 710.79 509.7H713.243V512H710.368C708.476 512 707.071 511.565 706.151 510.696C705.23 509.802 704.77 508.345 704.77 506.326V493.329H701.857V491.067H704.77V485.815H707.492V491.067H713.243V493.329H707.492ZM716.442 501.495C716.442 499.348 716.864 497.47 717.707 495.86C718.576 494.224 719.765 492.971 721.273 492.102C722.806 491.208 724.532 490.761 726.449 490.761C728.442 490.761 730.155 491.221 731.586 492.141C733.043 493.061 734.091 494.237 734.73 495.668V491.067H737.413V512H734.73V507.361C734.065 508.792 733.004 509.981 731.548 510.927C730.116 511.847 728.404 512.307 726.41 512.307C724.519 512.307 722.806 511.859 721.273 510.965C719.765 510.07 718.576 508.805 717.707 507.169C716.864 505.534 716.442 503.642 716.442 501.495ZM734.73 501.534C734.73 499.847 734.385 498.364 733.695 497.086C733.004 495.808 732.059 494.824 730.858 494.134C729.682 493.444 728.378 493.099 726.947 493.099C725.465 493.099 724.136 493.431 722.96 494.096C721.784 494.761 720.851 495.732 720.161 497.01C719.497 498.262 719.164 499.757 719.164 501.495C719.164 503.208 719.497 504.716 720.161 506.019C720.851 507.297 721.784 508.281 722.96 508.971C724.136 509.636 725.465 509.968 726.947 509.968C728.378 509.968 729.682 509.623 730.858 508.933C732.059 508.243 733.004 507.259 733.695 505.981C734.385 504.703 734.73 503.221 734.73 501.534ZM753.355 490.684C755.859 490.684 757.904 491.463 759.489 493.023C761.073 494.556 761.866 496.792 761.866 499.732V512H759.22V500.038C759.22 497.764 758.645 496.026 757.495 494.824C756.371 493.623 754.824 493.023 752.856 493.023C750.837 493.023 749.227 493.661 748.026 494.939C746.824 496.217 746.224 498.096 746.224 500.575V512H743.54V491.067H746.224V494.633C746.888 493.355 747.847 492.384 749.099 491.719C750.351 491.029 751.77 490.684 753.355 490.684ZM766.574 501.534C766.574 499.361 767.009 497.47 767.878 495.86C768.747 494.224 769.948 492.971 771.482 492.102C773.015 491.208 774.766 490.761 776.734 490.761C779.315 490.761 781.437 491.4 783.098 492.677C784.785 493.955 785.871 495.693 786.357 497.891H783.481C783.124 496.384 782.344 495.208 781.143 494.364C779.967 493.495 778.497 493.061 776.734 493.061C775.328 493.061 774.063 493.38 772.938 494.019C771.814 494.658 770.919 495.617 770.255 496.895C769.616 498.147 769.296 499.693 769.296 501.534C769.296 503.374 769.616 504.933 770.255 506.211C770.919 507.489 771.814 508.447 772.938 509.086C774.063 509.725 775.328 510.045 776.734 510.045C778.497 510.045 779.967 509.623 781.143 508.78C782.344 507.911 783.124 506.709 783.481 505.176H786.357C785.871 507.323 784.785 509.048 783.098 510.351C781.411 511.655 779.29 512.307 776.734 512.307C774.766 512.307 773.015 511.872 771.482 511.003C769.948 510.109 768.747 508.856 767.878 507.246C767.009 505.61 766.574 503.706 766.574 501.534ZM808.565 491.067L796.144 521.853H793.345L797.409 511.885L788.821 491.067H791.773L798.904 508.933L805.805 491.067H808.565Z" fill="white"/>
<defs>
<filter id="filter0_d_0_1" x="309.742" y="374.915" width="275.081" height="285.168" filterUnits="userSpaceOnUse" color-interpolation-filters="sRGB">
<feFlood flood-opacity="0" result="BackgroundImageFix"/>
<feColorMatrix in="SourceAlpha" type="matrix" values="0 0 0 0 0 0 0 0 0 0 0 0 0 0 0 0 0 0 127 0" result="hardAlpha"/>
<feOffset dx="6.30197" dy="2.52079"/>
<feGaussianBlur stdDeviation="1.26039"/>
<feComposite in2="hardAlpha" operator="out"/>
<feColorMatrix type="matrix" values="0 0 0 0 0 0 0 0 0 0 0 0 0 0 0 0 0 0 0.25 0"/>
<feBlend mode="normal" in2="BackgroundImageFix" result="effect1_dropShadow_0_1"/>
<feBlend mode="normal" in="SourceGraphic" in2="effect1_dropShadow_0_1" result="shape"/>
</filter>
<filter id="filter1_d_0_1" x="144" y="264" width="275.081" height="285.168" filterUnits="userSpaceOnUse" color-interpolation-filters="sRGB">
<feFlood flood-opacity="0" result="BackgroundImageFix"/>
<feColorMatrix in="SourceAlpha" type="matrix" values="0 0 0 0 0 0 0 0 0 0 0 0 0 0 0 0 0 0 127 0" result="hardAlpha"/>
<feOffset dx="6.30197" dy="2.52079"/>
<feGaussianBlur stdDeviation="1.26039"/>
<feComposite in2="hardAlpha" operator="out"/>
<feColorMatrix type="matrix" values="0 0 0 0 0 0 0 0 0 0 0 0 0 0 0 0 0 0 0.25 0"/>
<feBlend mode="normal" in2="BackgroundImageFix" result="effect1_dropShadow_0_1"/>
<feBlend mode="normal" in="SourceGraphic" in2="effect1_dropShadow_0_1" result="shape"/>
</filter>
<linearGradient id="paint0_linear_0_1" x1="445.549" y1="467.239" x2="224.98" y2="179.869" gradientUnits="userSpaceOnUse">
<stop stop-color="#8F68FB"/>
<stop offset="1" stop-opacity="0"/>
</linearGradient>
<linearGradient id="paint1_linear_0_1" x1="275.396" y1="445.182" x2="476.744" y2="722.468" gradientUnits="userSpaceOnUse">
<stop stop-color="#8F68FB"/>
<stop offset="0.342064" stop-color="#034637"/>
<stop offset="1" stop-opacity="0"/>
</linearGradient>
</defs>
</svg>
